EB Garamond 12-Bold Italic.ufo
<glyph name="comma" format="1">
  <advance width="244"/>
  <unicode hex="002C"/>
  <note>
    comma
  </note>
  <outline>
    <contour>
      <point x="50" y="-166"/>
      <point x="160" y="-58"/>
      <point x="160" y="31" type="curve" smooth="yes"/>
      <point x="160" y="85"/>
      <point x="122" y="119"/>
      <point x="73" y="119" type="curve" smooth="yes"/>
      <point x="26" y="119"/>
      <point x="-11" y="80"/>
      <point x="-11" y="35" type="curve" smooth="yes"/>
      <point x="-11" y="14"/>
      <point x="2" y="1"/>
      <point x="17" y="-4" type="curve" smooth="yes"/>
      <point x="33" y="-9"/>
      <point x="47" y="-18"/>
      <point x="47" y="-36" type="curve" smooth="yes"/>
      <point x="47" y="-77"/>
      <point x="-4" y="-120"/>
      <point x="-58" y="-127" type="curve" smooth="yes"/>
      <point x="-73" y="-129"/>
      <point x="-84" y="-136"/>
      <point x="-88" y="-147" type="curve" smooth="yes"/>
      <point x="-92" y="-158"/>
      <point x="-83" y="-166"/>
      <point x="-67" y="-166" type="curve" smooth="yes"/>
    </contour>
  </outline>
</glyph>
<glyph name="period" format="1">
  <advance width="280"/>
  <unicode hex="002E"/>
  <note>
    period
  </note>
  <outline>
    <contour>
      <point x="129" y="-34"/>
      <point x="178" y="13"/>
      <point x="178" y="66" type="curve" smooth="yes"/>
      <point x="178" y="101"/>
      <point x="153" y="141"/>
      <point x="106" y="141" type="curve" smooth="yes"/>
      <point x="50" y="141"/>
      <point x="2" y="90"/>
      <point x="2" y="35" type="curve" smooth="yes"/>
      <point x="2" y="-1"/>
      <point x="32" y="-34"/>
      <point x="70" y="-34" type="curve" smooth="yes"/>
    </contour>
  </outline>
</glyph>
<glyph name="slash" format="1">
  <advance width="277"/>
  <unicode hex="002F"/>
  <note>
    slash
  </note>
  <outline>
    <contour>
      <point x="-25" y="-61"/>
      <point x="-6" y="-61"/>
      <point x="4" y="-44" type="curve" smooth="yes"/>
      <point x="399" y="639" type="line" smooth="yes"/>
      <point x="404" y="648"/>
      <point x="397" y="661"/>
      <point x="379" y="663" type="curve" smooth="yes"/>
      <point x="357" y="665"/>
      <point x="340" y="663"/>
      <point x="330" y="645" type="curve" smooth="yes"/>
      <point x="-63" y="-38" type="line" smooth="yes"/>
      <point x="-69" y="-48"/>
      <point x="-59" y="-59"/>
      <point x="-44" y="-60" type="curve" smooth="yes"/>
    </contour>
  </outline>
</glyph>
<glyph name="O" format="1">
  <advance width="692"/>
  <unicode hex="004F"/>
  <note>
    O
  </note>
  <outline>
    <contour>
      <point x="520" y="-14"/>
      <point x="710" y="188"/>
      <point x="710" y="408" type="curve" smooth="yes"/>
      <point x="710" y="561"/>
      <point x="604" y="664"/>
      <point x="470" y="664" type="curve" smooth="yes"/>
      <point x="241" y="664"/>
      <point x="53" y="463"/>
      <point x="53" y="242" type="curve" smooth="yes"/>
      <point x="53" y="89"/>
      <point x="158" y="-14"/>
      <point x="292" y="-14" type="curve" smooth="yes"/>
    </contour>
    <contour>
      <point x="229" y="25"/>
      <point x="203" y="93"/>
      <point x="203" y="176" type="curve" smooth="yes"/>
      <point x="203" y="336"/>
      <point x="333" y="629"/>
      <point x="469" y="629" type="curve" smooth="yes"/>
      <point x="531" y="629"/>
      <point x="559" y="557"/>
      <point x="559" y="473" type="curve" smooth="yes"/>
      <point x="559" y="314"/>
      <point x="428" y="25"/>
      <point x="291" y="25" type="curve" smooth="yes"/>
    </contour>
    <contour>
      <point x="501" y="675" type="move" name="top.cap"/>
    </contour>
    <contour>
      <point x="278" y="-30" type="move" name="bottom.cap"/>
    </contour>
  </outline>
</glyph>
<glyph name="ordfeminine" format="1">
  <advance width="361"/>
  <unicode hex="00AA"/>
  <note>
    ordfeminine
  </note>
  <outline>
    <contour>
      <point x="265" y="159" type="line" smooth="yes"/>
      <point x="284" y="159"/>
      <point x="306" y="177"/>
      <point x="306" y="190" type="curve" smooth="yes"/>
      <point x="306" y="199"/>
      <point x="296" y="206"/>
      <point x="288" y="206" type="curve" smooth="yes"/>
      <point x="48" y="206" type="line" smooth="yes"/>
      <point x="32" y="206"/>
      <point x="17" y="186"/>
      <point x="17" y="175" type="curve" smooth="yes"/>
      <point x="17" y="168"/>
      <point x="26" y="159"/>
      <point x="35" y="159" type="curve" smooth="yes"/>
    </contour>
    <component base="a.ordn" xOffset="-3" yOffset="-7"/>
  </outline>
</glyph>
<glyph name="macron" format="1">
  <advance width="367"/>
  <unicode hex="00AF"/>
  <note>
    macron
  </note>
  <outline>
    <component base="uni0304" xOffset="187" yOffset="13"/>
    <contour>
      <point x="259" y="440" type="move" name="_top"/>
    </contour>
  </outline>
</glyph>
<glyph name="Oslash" format="1">
  <advance width="692"/>
  <unicode hex="00D8"/>
  <note>
    Oslash
  </note>
  <outline>
    <contour>
      <point x="27" y="-14"/>
      <point x="35" y="-11"/>
      <point x="43" y="-4" type="curve" smooth="yes"/>
      <point x="144" y="79" type="line"/>
      <point x="183" y="103" type="line"/>
      <point x="592" y="446" type="line"/>
      <point x="667" y="499" type="line"/>
      <point x="777" y="587" type="line" smooth="yes"/>
      <point x="787" y="595"/>
      <point x="794" y="609"/>
      <point x="794" y="629" type="curve" smooth="yes"/>
      <point x="794" y="648"/>
      <point x="782" y="664"/>
      <point x="765" y="664" type="curve" smooth="yes"/>
      <point x="757" y="664"/>
      <point x="747" y="660"/>
      <point x="737" y="652" type="curve" smooth="yes"/>
      <point x="623" y="562" type="line"/>
      <point x="581" y="537" type="line"/>
      <point x="172" y="199" type="line"/>
      <point x="116" y="162" type="line"/>
      <point x="-8" y="63" type="line"/>
      <point x="-20" y="54"/>
      <point x="-26" y="41"/>
      <point x="-26" y="27" type="curve" smooth="yes"/>
      <point x="-26" y="10"/>
      <point x="-7" y="-14"/>
      <point x="18" y="-14" type="curve" smooth="yes"/>
    </contour>
    <component base="O"/>
    <contour>
      <point x="512" y="675" type="move" name="top.cap"/>
    </contour>
  </outline>
</glyph>
<glyph name="hbar" format="1">
  <advance width="544"/>
  <unicode hex="0127"/>
  <note>
    hbar
  </note>
  <outline>
    <contour>
      <point x="401" y="507" type="line" smooth="yes"/>
      <point x="424" y="507"/>
      <point x="442" y="522"/>
      <point x="451" y="539" type="curve" smooth="yes"/>
      <point x="452" y="541"/>
      <point x="453" y="548"/>
      <point x="454" y="550" type="curve" smooth="yes"/>
      <point x="459" y="559"/>
      <point x="450" y="569"/>
      <point x="437" y="569" type="curve" smooth="yes"/>
      <point x="153" y="568" type="line" smooth="yes"/>
      <point x="136" y="568"/>
      <point x="120" y="555"/>
      <point x="114" y="537" type="curve" smooth="yes"/>
      <point x="109" y="523"/>
      <point x="111" y="506"/>
      <point x="128" y="506" type="curve" smooth="yes"/>
    </contour>
    <component base="h"/>
  </outline>
</glyph>
<glyph name="OE" format="1">
  <advance width="963"/>
  <unicode hex="0152"/>
  <note>
    OE
  </note>
  <outline>
    <contour>
      <point x="373" y="-14"/>
      <point x="454" y="7"/>
      <point x="519" y="49" type="curve"/>
      <point x="466" y="146" type="line"/>
      <point x="420" y="73"/>
      <point x="353" y="28"/>
      <point x="294" y="28" type="curve" smooth="yes"/>
      <point x="232" y="28"/>
      <point x="203" y="93"/>
      <point x="203" y="176" type="curve" smooth="yes"/>
      <point x="203" y="336"/>
      <point x="330" y="622"/>
      <point x="466" y="622" type="curve" smooth="yes"/>
      <point x="527" y="622"/>
      <point x="574" y="575"/>
      <point x="575" y="492" type="curve"/>
      <point x="701" y="550" type="line"/>
      <point x="661" y="633"/>
      <point x="564" y="664"/>
      <point x="470" y="664" type="curve" smooth="yes"/>
      <point x="241" y="664"/>
      <point x="53" y="463"/>
      <point x="53" y="242" type="curve" smooth="yes"/>
      <point x="53" y="89"/>
      <point x="158" y="-14"/>
      <point x="292" y="-14" type="curve" smooth="yes"/>
    </contour>
    <component base="E" xOffset="391"/>
    <contour>
      <point x="680" y="675" type="move" name="top.cap"/>
    </contour>
    <contour>
      <point x="434" y="-30" type="move" name="bottom.cap"/>
    </contour>
  </outline>
</glyph>
<glyph name="Tbar" format="1">
  <advance width="701"/>
  <unicode hex="0166"/>
  <note>
    Tbar
  </note>
  <outline>
    <contour>
      <point x="544" y="327" type="line" smooth="yes"/>
      <point x="566" y="327"/>
      <point x="595" y="350"/>
      <point x="601" y="370" type="curve" smooth="yes"/>
      <point x="604" y="380"/>
      <point x="597" y="389"/>
      <point x="584" y="389" type="curve" smooth="yes"/>
      <point x="237" y="389" type="line" smooth="yes"/>
      <point x="220" y="389"/>
      <point x="204" y="376"/>
      <point x="198" y="358" type="curve" smooth="yes"/>
      <point x="192" y="340"/>
      <point x="199" y="327"/>
      <point x="214" y="327" type="curve" smooth="yes"/>
    </contour>
    <component base="T"/>
  </outline>
</glyph>
<glyph name="uni019B" format="1">
  <advance width="551"/>
  <unicode hex="019B"/>
  <note>
    uni019B
  </note>
  <outline>
    <contour>
      <point x="352" y="506" type="line"/>
      <point x="372" y="515" type="line"/>
      <point x="524" y="583" type="line"/>
      <point x="546" y="593"/>
      <point x="548" y="615"/>
      <point x="549" y="632" type="curve" smooth="yes"/>
      <point x="550" y="651"/>
      <point x="533" y="654"/>
      <point x="517" y="648" type="curve"/>
      <point x="366" y="580" type="line"/>
      <point x="343" y="570" type="line"/>
      <point x="206" y="509" type="line"/>
      <point x="189" y="501"/>
      <point x="187" y="488"/>
      <point x="184" y="464" type="curve" smooth="yes"/>
      <point x="182" y="445"/>
      <point x="198" y="439"/>
      <point x="221" y="448" type="curve"/>
    </contour>
    <component base="lambda"/>
  </outline>
</glyph>
<glyph name="uni01AB" format="1">
  <advance width="398"/>
  <unicode hex="01AB"/>
  <note>
    uni01AB
  </note>
  <outline>
    <contour>
      <point x="70" y="-290"/>
      <point x="199" y="-178"/>
      <point x="249" y="-101" type="curve" smooth="yes"/>
      <point x="303" y="-19"/>
      <point x="338" y="79"/>
      <point x="338" y="167" type="curve"/>
      <point x="161" y="32" type="line"/>
      <point x="136" y="-178"/>
      <point x="66" y="-234"/>
      <point x="23" y="-234" type="curve" smooth="yes"/>
      <point x="4" y="-234"/>
      <point x="-7" y="-222"/>
      <point x="-19" y="-207" type="curve" smooth="yes"/>
      <point x="-32" y="-191"/>
      <point x="-51" y="-175"/>
      <point x="-74" y="-175" type="curve" smooth="yes"/>
      <point x="-90" y="-175"/>
      <point x="-121" y="-196"/>
      <point x="-124" y="-233" type="curve" smooth="yes"/>
      <point x="-126" y="-262"/>
      <point x="-99" y="-290"/>
      <point x="-26" y="-290" type="curve" smooth="yes"/>
    </contour>
    <component base="t"/>
  </outline>
</glyph>
<glyph name="uni01B6" format="1">
  <advance width="485"/>
  <unicode hex="01B6"/>
  <note>
    uni01B6
  </note>
  <outline>
    <contour>
      <point x="230" y="208" type="line"/>
      <point x="384" y="208" type="line" smooth="yes"/>
      <point x="407" y="208"/>
      <point x="422" y="229"/>
      <point x="426" y="246" type="curve"/>
      <point x="426" y="248"/>
      <point x="427" y="249"/>
      <point x="427" y="251" type="curve" smooth="yes"/>
      <point x="427" y="261"/>
      <point x="417" y="270"/>
      <point x="404" y="270" type="curve" smooth="yes"/>
      <point x="303" y="270" type="line"/>
    </contour>
    <contour>
      <point x="225" y="202" type="line"/>
      <point x="35" y="202" type="line" smooth="yes"/>
      <point x="18" y="202"/>
      <point x="6" y="189"/>
      <point x="6" y="171" type="curve" smooth="yes"/>
      <point x="6" y="157"/>
      <point x="13" y="140"/>
      <point x="30" y="140" type="curve" smooth="yes"/>
      <point x="152" y="140" type="line"/>
    </contour>
    <component base="z"/>
  </outline>
</glyph>
<glyph name="uni01BB" format="1">
  <advance width="503"/>
  <unicode hex="01BB"/>
  <note>
    uni01BB
  </note>
  <outline>
    <contour>
      <point x="453" y="256" type="line" smooth="yes"/>
      <point x="475" y="256"/>
      <point x="505" y="281"/>
      <point x="510" y="299" type="curve" smooth="yes"/>
      <point x="513" y="309"/>
      <point x="506" y="318"/>
      <point x="493" y="318" type="curve" smooth="yes"/>
      <point x="151" y="318" type="line" smooth="yes"/>
      <point x="134" y="318"/>
      <point x="118" y="305"/>
      <point x="112" y="287" type="curve" smooth="yes"/>
      <point x="107" y="273"/>
      <point x="109" y="256"/>
      <point x="126" y="256" type="curve" smooth="yes"/>
    </contour>
    <component base="two.lf"/>
  </outline>
</glyph>
<glyph name="uni023C" format="1">
  <advance width="378"/>
  <unicode hex="023C"/>
  <note>
    uni023C
  </note>
  <outline>
    <contour>
      <point x="39" y="-77"/>
      <point x="59" y="-74"/>
      <point x="69" y="-56" type="curve" smooth="yes"/>
      <point x="366" y="451" type="line" smooth="yes"/>
      <point x="367" y="452"/>
      <point x="372" y="463"/>
      <point x="372" y="464" type="curve" smooth="yes"/>
      <point x="372" y="472"/>
      <point x="364" y="479"/>
      <point x="355" y="479" type="curve" smooth="yes"/>
      <point x="332" y="479"/>
      <point x="313" y="478"/>
      <point x="302" y="459" type="curve" smooth="yes"/>
      <point x="4" y="-45" type="line" smooth="yes"/>
      <point x="-1" y="-53"/>
      <point x="-2" y="-57"/>
      <point x="-2" y="-60" type="curve"/>
      <point x="-2" y="-68"/>
      <point x="3" y="-77"/>
      <point x="16" y="-77" type="curve" smooth="yes"/>
    </contour>
    <component base="c"/>
  </outline>
</glyph>
<glyph name="uni0244" format="1">
  <advance width="715"/>
  <unicode hex="0244"/>
  <note>
    uni0244
  </note>
  <outline>
    <contour>
      <point x="660" y="254" type="line" smooth="yes"/>
      <point x="683" y="254"/>
      <point x="698" y="275"/>
      <point x="702" y="292" type="curve"/>
      <point x="702" y="294"/>
      <point x="703" y="295"/>
      <point x="703" y="297" type="curve" smooth="yes"/>
      <point x="703" y="307"/>
      <point x="693" y="316"/>
      <point x="680" y="316" type="curve" smooth="yes"/>
      <point x="80" y="316" type="line" smooth="yes"/>
      <point x="63" y="316"/>
      <point x="42" y="303"/>
      <point x="42" y="285" type="curve" smooth="yes"/>
      <point x="42" y="271"/>
      <point x="49" y="254"/>
      <point x="66" y="254" type="curve" smooth="yes"/>
    </contour>
    <component base="U"/>
  </outline>
</glyph>
<glyph name="uni024D" format="1">
  <advance width="474"/>
  <unicode hex="024D"/>
  <note>
    uni024D
  </note>
  <outline>
    <contour>
      <point x="321" y="120" type="line" smooth="yes"/>
      <point x="344" y="120"/>
      <point x="359" y="141"/>
      <point x="363" y="158" type="curve"/>
      <point x="363" y="160"/>
      <point x="364" y="161"/>
      <point x="364" y="163" type="curve" smooth="yes"/>
      <point x="364" y="173"/>
      <point x="354" y="182"/>
      <point x="341" y="182" type="curve" smooth="yes"/>
      <point x="47" y="182" type="line" smooth="yes"/>
      <point x="30" y="182"/>
      <point x="18" y="169"/>
      <point x="18" y="151" type="curve" smooth="yes"/>
      <point x="18" y="137"/>
      <point x="25" y="120"/>
      <point x="42" y="120" type="curve" smooth="yes"/>
    </contour>
    <component base="r"/>
  </outline>
</glyph>
<glyph name="uni024E" format="1">
  <advance width="669"/>
  <unicode hex="024E"/>
  <note>
    uni024E
  </note>
  <outline>
    <contour>
      <point x="685" y="455" type="line" smooth="yes"/>
      <point x="708" y="455"/>
      <point x="723" y="476"/>
      <point x="727" y="493" type="curve"/>
      <point x="727" y="495"/>
      <point x="728" y="496"/>
      <point x="728" y="498" type="curve" smooth="yes"/>
      <point x="728" y="508"/>
      <point x="718" y="517"/>
      <point x="705" y="517" type="curve" smooth="yes"/>
      <point x="154" y="517" type="line" smooth="yes"/>
      <point x="137" y="517"/>
      <point x="125" y="504"/>
      <point x="125" y="486" type="curve" smooth="yes"/>
      <point x="125" y="472"/>
      <point x="132" y="455"/>
      <point x="149" y="455" type="curve" smooth="yes"/>
    </contour>
    <component base="Y"/>
  </outline>
</glyph>
<glyph name="uni025F" format="1">
  <advance width="303"/>
  <unicode hex="025F"/>
  <outline>
    <contour>
      <point x="273" y="163" type="line" smooth="yes"/>
      <point x="296" y="163"/>
      <point x="311" y="184"/>
      <point x="315" y="201" type="curve"/>
      <point x="315" y="203"/>
      <point x="316" y="204"/>
      <point x="316" y="206" type="curve" smooth="yes"/>
      <point x="316" y="216"/>
      <point x="306" y="225"/>
      <point x="293" y="225" type="curve" smooth="yes"/>
      <point x="51" y="225" type="line" smooth="yes"/>
      <point x="34" y="225"/>
      <point x="22" y="212"/>
      <point x="22" y="194" type="curve" smooth="yes"/>
      <point x="22" y="180"/>
      <point x="29" y="163"/>
      <point x="46" y="163" type="curve" smooth="yes"/>
    </contour>
    <component base="j.dotless"/>
  </outline>
</glyph>
<glyph name="circumflex" format="1">
  <advance width="367"/>
  <unicode hex="02C6"/>
  <note>
    circumflex
  </note>
  <outline>
    <component base="caron" xOffset="598" yOffset="1171" xScale="-1" yScale="-1"/>
    <contour>
      <point x="247" y="440" type="move" name="_top"/>
    </contour>
  </outline>
</glyph>
<glyph name="caron" format="1">
  <advance width="367"/>
  <unicode hex="02C7"/>
  <note>
    caron
  </note>
  <outline>
    <component base="uni030C" xOffset="184"/>
    <contour>
      <point x="258" y="440" type="move" name="_top"/>
    </contour>
  </outline>
</glyph>
<glyph name="uni02D1" format="1">
  <advance width="245"/>
  <unicode hex="02D1"/>
  <note>
    uni02D1
  </note>
  <outline>
    <contour>
      <point x="128" y="232" type="line"/>
      <point x="279" y="394" type="line"/>
      <point x="77" y="394" type="line"/>
    </contour>
  </outline>
</glyph>
<glyph name="uni0306" format="1">
  <advance width="0"/>
  <unicode hex="0306"/>
  <note>
    uni0306
  </note>
  <outline>
    <contour>
      <point x="184" y="475"/>
      <point x="244" y="558"/>
      <point x="250" y="599" type="curve" smooth="yes"/>
      <point x="254" y="624"/>
      <point x="248" y="635"/>
      <point x="236" y="635" type="curve" smooth="yes"/>
      <point x="224" y="635"/>
      <point x="214" y="627"/>
      <point x="207" y="614" type="curve" smooth="yes"/>
      <point x="186" y="575"/>
      <point x="155" y="562"/>
      <point x="108" y="562" type="curve" smooth="yes"/>
      <point x="61" y="562"/>
      <point x="38" y="575"/>
      <point x="41" y="614" type="curve" smooth="yes"/>
      <point x="42" y="627"/>
      <point x="38" y="635"/>
      <point x="26" y="635" type="curve" smooth="yes"/>
      <point x="14" y="635"/>
      <point x="-3" y="624"/>
      <point x="-10" y="599" type="curve" smooth="yes"/>
      <point x="-26" y="544"/>
      <point x="0" y="475"/>
      <point x="91" y="475" type="curve" smooth="yes"/>
    </contour>
    <contour>
      <point x="116" y="605" type="move" name="top"/>
    </contour>
  </outline>
</glyph>
<glyph name="uni0308" format="1">
  <advance width="0"/>
  <unicode hex="0308"/>
  <note>
    uni0308
  </note>
  <outline>
    <contour>
      <point x="245" y="491"/>
      <point x="293" y="535"/>
      <point x="293" y="587" type="curve" smooth="yes"/>
      <point x="293" y="622"/>
      <point x="271" y="644"/>
      <point x="234" y="644" type="curve" smooth="yes"/>
      <point x="182" y="644"/>
      <point x="131" y="602"/>
      <point x="131" y="549" type="curve" smooth="yes"/>
      <point x="131" y="514"/>
      <point x="152" y="491"/>
      <point x="186" y="491" type="curve" smooth="yes"/>
    </contour>
    <contour>
      <point x="41" y="491"/>
      <point x="89" y="535"/>
      <point x="89" y="587" type="curve" smooth="yes"/>
      <point x="89" y="622"/>
      <point x="67" y="644"/>
      <point x="30" y="644" type="curve" smooth="yes"/>
      <point x="-22" y="644"/>
      <point x="-73" y="602"/>
      <point x="-73" y="549" type="curve" smooth="yes"/>
      <point x="-73" y="514"/>
      <point x="-52" y="491"/>
      <point x="-18" y="491" type="curve" smooth="yes"/>
    </contour>
    <contour>
      <point x="124" y="611" type="move" name="top"/>
    </contour>
    <contour>
      <point x="71" y="440" type="move" name="_top"/>
    </contour>
  </outline>
</glyph>
<glyph name="uni030A" format="1">
  <advance width="0"/>
  <unicode hex="030A"/>
  <note>
    uni030A
  </note>
  <outline>
    <contour>
      <point x="168" y="480"/>
      <point x="231" y="541"/>
      <point x="231" y="613" type="curve" smooth="yes"/>
      <point x="231" y="656"/>
      <point x="188" y="680"/>
      <point x="143" y="680" type="curve" smooth="yes"/>
      <point x="62" y="680"/>
      <point x="-3" y="620"/>
      <point x="-3" y="546" type="curve" smooth="yes"/>
      <point x="-3" y="504"/>
      <point x="39" y="480"/>
      <point x="85" y="480" type="curve" smooth="yes"/>
    </contour>
    <contour>
      <point x="76" y="518"/>
      <point x="63" y="535"/>
      <point x="63" y="558" type="curve" smooth="yes"/>
      <point x="63" y="590"/>
      <point x="92" y="638"/>
      <point x="128" y="638" type="curve" smooth="yes"/>
      <point x="151" y="638"/>
      <point x="164" y="623"/>
      <point x="164" y="601" type="curve" smooth="yes"/>
      <point x="164" y="570"/>
      <point x="135" y="518"/>
      <point x="100" y="518" type="curve" smooth="yes"/>
    </contour>
    <contour>
      <point x="74" y="440" type="move" name="_top"/>
    </contour>
  </outline>
</glyph>
<glyph name="uni0312" format="1">
  <advance width="0"/>
  <unicode hex="0312"/>
  <note>
    uni0312
  </note>
  <outline>
    <component base="uni0326" xOffset="-4" yOffset="413" xScale="-1" yScale="-1"/>
    <contour>
      <point x="70" y="440" type="move" name="_top"/>
    </contour>
  </outline>
</glyph>
<glyph name="tonos" format="1">
  <advance width="245"/>
  <unicode hex="0384"/>
  <note>
    tonos
  </note>
  <outline>
    <contour>
      <point x="177" y="481"/>
      <point x="192" y="492"/>
      <point x="201" y="501" type="curve" smooth="yes"/>
      <point x="237" y="537"/>
      <point x="322" y="641"/>
      <point x="322" y="657" type="curve" smooth="yes"/>
      <point x="322" y="671"/>
      <point x="290" y="714"/>
      <point x="265" y="714" type="curve" smooth="yes"/>
      <point x="249" y="714"/>
      <point x="246" y="710"/>
      <point x="236" y="694" type="curve" smooth="yes"/>
      <point x="214" y="658"/>
      <point x="154" y="520"/>
      <point x="152" y="498" type="curve" smooth="yes"/>
      <point x="151" y="488"/>
      <point x="154" y="481"/>
      <point x="165" y="481" type="curve" smooth="yes"/>
    </contour>
    <contour>
      <point x="157" y="460" type="move" name="_topgreek"/>
    </contour>
  </outline>
</glyph>
<glyph name="Epsilon" format="1">
  <advance width="572"/>
  <unicode hex="0395"/>
  <note>
    Epsilon
  </note>
  <outline>
    <component base="E"/>
    <contour>
      <point x="248" y="-30" type="move" name="bottomgreek"/>
    </contour>
    <contour>
      <point x="-58" y="400" type="move" name="topgreek"/>
    </contour>
  </outline>
</glyph>
<glyph name="omicron" format="1">
  <advance width="391"/>
  <unicode hex="03BF"/>
  <note>
    omicron
  </note>
  <outline>
    <contour>
      <point x="269" y="-14"/>
      <point x="362" y="184"/>
      <point x="362" y="296" type="curve" smooth="yes"/>
      <point x="362" y="374"/>
      <point x="323" y="437"/>
      <point x="256" y="437" type="curve" smooth="yes"/>
      <point x="126" y="437"/>
      <point x="12" y="257"/>
      <point x="12" y="119" type="curve" smooth="yes"/>
      <point x="12" y="42"/>
      <point x="83" y="-14"/>
      <point x="127" y="-14" type="curve" smooth="yes"/>
    </contour>
    <contour>
      <point x="85" y="115"/>
      <point x="60" y="130"/>
      <point x="60" y="161" type="curve" smooth="yes"/>
      <point x="60" y="216"/>
      <point x="165" y="321"/>
      <point x="252" y="321" type="curve" smooth="yes"/>
      <point x="291" y="321"/>
      <point x="314" y="307"/>
      <point x="319" y="276" type="curve"/>
      <point x="319" y="210"/>
      <point x="199" y="115"/>
      <point x="121" y="115" type="curve" smooth="yes"/>
    </contour>
    <contour>
      <point x="270" y="440" type="move" name="topgreek"/>
    </contour>
  </outline>
</glyph>
<glyph name="uni0449" format="1">
  <advance width="832"/>
  <unicode hex="0449"/>
  <note>
    uni0449
  </note>
  <outline>
    <contour>
      <point x="489" y="-276"/>
      <point x="575" y="-258"/>
      <point x="617" y="-233" type="curve" smooth="yes"/>
      <point x="677" y="-197"/>
      <point x="692" y="-139"/>
      <point x="705" y="-74" type="curve" smooth="yes"/>
      <point x="718" y="-7"/>
      <point x="734" y="64"/>
      <point x="772" y="103" type="curve"/>
      <point x="680" y="39" type="line"/>
      <point x="693" y="19" type="line"/>
      <point x="681" y="12"/>
      <point x="627" y="-28"/>
      <point x="610" y="-50" type="curve" smooth="yes"/>
      <point x="578" y="-91"/>
      <point x="562" y="-124"/>
      <point x="549" y="-168" type="curve" smooth="yes"/>
      <point x="531" y="-227"/>
      <point x="504" y="-242"/>
      <point x="473" y="-253" type="curve"/>
      <point x="467" y="-256"/>
      <point x="462" y="-258"/>
      <point x="462" y="-264" type="curve" smooth="yes"/>
      <point x="462" y="-273"/>
      <point x="471" y="-276"/>
      <point x="479" y="-276" type="curve" smooth="yes"/>
    </contour>
    <component base="uni0448"/>
  </outline>
</glyph>
<glyph name="uni0452" format="1">
  <advance width="553"/>
  <unicode hex="0452"/>
  <note>
    uni0452
  </note>
  <outline>
    <contour>
      <point x="222" y="-211"/>
      <point x="320" y="-133"/>
      <point x="343" y="-106" type="curve" smooth="yes"/>
      <point x="448" y="17"/>
      <point x="543" y="221"/>
      <point x="543" y="346" type="curve" smooth="yes"/>
      <point x="543" y="403"/>
      <point x="514" y="437"/>
      <point x="457" y="437" type="curve" smooth="yes"/>
      <point x="374" y="437"/>
      <point x="287" y="330"/>
      <point x="218" y="215" type="curve" smooth="yes"/>
      <point x="213" y="207"/>
      <point x="204" y="207"/>
      <point x="207" y="217" type="curve" smooth="yes"/>
      <point x="359" y="650" type="line" smooth="yes"/>
      <point x="364" y="664"/>
      <point x="369" y="676"/>
      <point x="369" y="693" type="curve" smooth="yes"/>
      <point x="369" y="707"/>
      <point x="351" y="707"/>
      <point x="341" y="707" type="curve" smooth="yes"/>
      <point x="318" y="707"/>
      <point x="206" y="673"/>
      <point x="173" y="662" type="curve" smooth="yes"/>
      <point x="147" y="653"/>
      <point x="144" y="648"/>
      <point x="144" y="640" type="curve" smooth="yes"/>
      <point x="144" y="632"/>
      <point x="154" y="628"/>
      <point x="164" y="624" type="curve" smooth="yes"/>
      <point x="182" y="617"/>
      <point x="206" y="608"/>
      <point x="206" y="590" type="curve" smooth="yes"/>
      <point x="206" y="569"/>
      <point x="194" y="551"/>
      <point x="187" y="531" type="curve" smooth="yes"/>
      <point x="55" y="141" type="line" smooth="yes"/>
      <point x="46" y="113"/>
      <point x="42" y="92"/>
      <point x="42" y="70" type="curve" smooth="yes"/>
      <point x="42" y="18"/>
      <point x="83" y="-14"/>
      <point x="101" y="-14" type="curve" smooth="yes"/>
      <point x="127" y="-14"/>
      <point x="158" y="18"/>
      <point x="180" y="58" type="curve" smooth="yes"/>
      <point x="250" y="188"/>
      <point x="337" y="351"/>
      <point x="376" y="351" type="curve" smooth="yes"/>
      <point x="392" y="351"/>
      <point x="399" y="337"/>
      <point x="399" y="317" type="curve" smooth="yes"/>
      <point x="399" y="196"/>
      <point x="291" y="-150"/>
      <point x="227" y="-150" type="curve" smooth="yes"/>
      <point x="202" y="-150"/>
      <point x="183" y="-139"/>
      <point x="165" y="-129" type="curve" smooth="yes"/>
      <point x="148" y="-119"/>
      <point x="137" y="-110"/>
      <point x="129" y="-110" type="curve" smooth="yes"/>
      <point x="114" y="-110"/>
      <point x="103" y="-122"/>
      <point x="103" y="-141" type="curve" smooth="yes"/>
      <point x="103" y="-171"/>
      <point x="123" y="-211"/>
      <point x="178" y="-211" type="curve" smooth="yes"/>
    </contour>
    <contour>
      <point x="404" y="507" type="line" smooth="yes"/>
      <point x="427" y="507"/>
      <point x="445" y="522"/>
      <point x="454" y="539" type="curve" smooth="yes"/>
      <point x="455" y="541"/>
      <point x="456" y="548"/>
      <point x="457" y="550" type="curve" smooth="yes"/>
      <point x="462" y="559"/>
      <point x="453" y="569"/>
      <point x="440" y="569" type="curve" smooth="yes"/>
      <point x="156" y="568" type="line" smooth="yes"/>
      <point x="139" y="568"/>
      <point x="123" y="555"/>
      <point x="117" y="537" type="curve" smooth="yes"/>
      <point x="112" y="523"/>
      <point x="114" y="506"/>
      <point x="131" y="506" type="curve" smooth="yes"/>
    </contour>
  </outline>
</glyph>
<glyph name="yusbig-cy" format="1">
  <advance width="847"/>
  <unicode hex="046B"/>
  <outline>
    <contour>
      <point x="491" y="219" type="line"/>
      <point x="716" y="351" type="line" smooth="yes"/>
      <point x="749" y="371"/>
      <point x="781" y="380"/>
      <point x="809" y="389" type="curve" smooth="yes"/>
      <point x="824" y="394"/>
      <point x="830" y="399"/>
      <point x="834" y="411" type="curve" smooth="yes"/>
      <point x="838" y="422"/>
      <point x="822" y="423"/>
      <point x="813" y="423" type="curve" smooth="yes"/>
      <point x="120" y="423" type="line"/>
      <point x="111" y="423"/>
      <point x="94" y="422"/>
      <point x="91" y="411" type="curve" smooth="yes"/>
      <point x="88" y="399"/>
      <point x="91" y="394"/>
      <point x="102" y="389" type="curve" smooth="yes"/>
      <point x="124" y="379"/>
      <point x="140" y="368"/>
      <point x="162" y="353" type="curve" smooth="yes"/>
      <point x="222" y="312"/>
      <point x="283" y="260"/>
      <point x="365" y="197" type="curve"/>
    </contour>
    <contour>
      <point x="106" y="-14"/>
      <point x="153" y="13"/>
      <point x="218" y="82" type="curve" smooth="yes"/>
      <point x="256" y="121"/>
      <point x="314" y="187"/>
      <point x="348" y="229" type="curve"/>
      <point x="336" y="267" type="line"/>
      <point x="252" y="168"/>
      <point x="118" y="32"/>
      <point x="80" y="32" type="curve" smooth="yes"/>
      <point x="63" y="32"/>
      <point x="48" y="51"/>
      <point x="39" y="70" type="curve" smooth="yes"/>
      <point x="31" y="88"/>
      <point x="22" y="102"/>
      <point x="8" y="102" type="curve" smooth="yes"/>
      <point x="-15" y="102"/>
      <point x="-32" y="66"/>
      <point x="-32" y="37" type="curve" smooth="yes"/>
      <point x="-32" y="14"/>
      <point x="-7" y="-14"/>
      <point x="33" y="-14" type="curve" smooth="yes"/>
    </contour>
    <contour>
      <point x="335" y="-21"/>
      <point x="418" y="-3"/>
      <point x="431" y="37" type="curve"/>
      <point x="509" y="271" type="line"/>
      <point x="355" y="223" type="line"/>
      <point x="307" y="68" type="line" smooth="yes"/>
      <point x="300" y="44"/>
      <point x="293" y="25"/>
      <point x="293" y="19" type="curve" smooth="yes"/>
      <point x="293" y="-9"/>
      <point x="300" y="-21"/>
      <point x="323" y="-21" type="curve" smooth="yes"/>
    </contour>
    <contour>
      <point x="723" y="-14"/>
      <point x="803" y="88"/>
      <point x="803" y="149" type="curve" smooth="yes"/>
      <point x="803" y="155"/>
      <point x="799" y="160"/>
      <point x="793" y="160" type="curve" smooth="yes"/>
      <point x="789" y="160"/>
      <point x="782" y="156"/>
      <point x="776" y="148" type="curve" smooth="yes"/>
      <point x="750" y="113"/>
      <point x="728" y="98"/>
      <point x="703" y="98" type="curve" smooth="yes"/>
      <point x="666" y="98"/>
      <point x="646" y="132"/>
      <point x="646" y="183" type="curve" smooth="yes"/>
      <point x="646" y="233"/>
      <point x="663" y="306"/>
      <point x="689" y="349" type="curve"/>
      <point x="558" y="267" type="line"/>
      <point x="532" y="217"/>
      <point x="516" y="161"/>
      <point x="516" y="108" type="curve" smooth="yes"/>
      <point x="516" y="27"/>
      <point x="573" y="-14"/>
      <point x="636" y="-14" type="curve" smooth="yes"/>
    </contour>
    <contour>
      <point x="365" y="353" type="line"/>
      <point x="361" y="357"/>
      <point x="362" y="366"/>
      <point x="372" y="366" type="curve"/>
      <point x="614" y="365" type="line"/>
      <point x="624" y="365"/>
      <point x="623" y="359"/>
      <point x="610" y="351" type="curve" smooth="yes"/>
      <point x="464" y="262" type="line" smooth="yes"/>
      <point x="462" y="261"/>
      <point x="462" y="261"/>
      <point x="461" y="262" type="curve" smooth="yes"/>
    </contour>
  </outline>
</glyph>
<glyph name="uni0473" format="1">
  <advance width="475"/>
  <unicode hex="0473"/>
  <note>
    uni0473
  </note>
  <outline>
    <contour>
      <point x="319" y="191" type="line"/>
      <point x="316" y="238" type="line"/>
      <point x="159" y="225" type="line"/>
      <point x="162" y="178" type="line"/>
    </contour>
    <component base="o"/>
  </outline>
</glyph>
<glyph name="Hadescender-cy" format="1">
  <advance width="733"/>
  <unicode hex="04B2"/>
  <outline>
    <contour>
      <point x="556" y="-218"/>
      <point x="568" y="-208"/>
      <point x="578" y="-186" type="curve" smooth="yes"/>
      <point x="599" y="-139"/>
      <point x="626" y="-73"/>
      <point x="651" y="-27" type="curve" smooth="yes"/>
      <point x="668" y="5"/>
      <point x="671" y="27"/>
      <point x="628" y="42" type="curve" smooth="yes"/>
      <point x="602" y="53"/>
      <point x="570" y="63"/>
      <point x="558" y="100" type="curve" smooth="yes"/>
      <point x="495" y="291" type="line" smooth="yes"/>
      <point x="485" y="321"/>
      <point x="491" y="337"/>
      <point x="509" y="358" type="curve" smooth="yes"/>
      <point x="693" y="568" type="line" smooth="yes"/>
      <point x="714" y="592"/>
      <point x="753" y="611"/>
      <point x="781" y="620" type="curve" smooth="yes"/>
      <point x="793" y="624"/>
      <point x="810" y="627"/>
      <point x="810" y="640" type="curve" smooth="yes"/>
      <point x="810" y="653"/>
      <point x="792" y="657"/>
      <point x="777" y="657" type="curve" smooth="yes"/>
      <point x="735" y="657"/>
      <point x="715" y="650"/>
      <point x="676" y="650" type="curve" smooth="yes"/>
      <point x="645" y="650"/>
      <point x="619" y="654"/>
      <point x="589" y="654" type="curve" smooth="yes"/>
      <point x="575" y="654"/>
      <point x="560" y="649"/>
      <point x="560" y="640" type="curve" smooth="yes"/>
      <point x="560" y="628"/>
      <point x="577" y="620"/>
      <point x="590" y="618" type="curve" smooth="yes"/>
      <point x="632" y="612"/>
      <point x="635" y="579"/>
      <point x="576" y="501" type="curve" smooth="yes"/>
      <point x="492" y="391" type="line" smooth="yes"/>
      <point x="482" y="378"/>
      <point x="468" y="377"/>
      <point x="463" y="394" type="curve" smooth="yes"/>
      <point x="417" y="548" type="line" smooth="yes"/>
      <point x="405" y="588"/>
      <point x="427" y="609"/>
      <point x="465" y="618" type="curve" smooth="yes"/>
      <point x="477" y="621"/>
      <point x="493" y="628"/>
      <point x="493" y="640" type="curve" smooth="yes"/>
      <point x="493" y="649"/>
      <point x="477" y="655"/>
      <point x="466" y="655" type="curve" smooth="yes"/>
      <point x="417" y="655"/>
      <point x="374" y="648"/>
      <point x="327" y="648" type="curve" smooth="yes"/>
      <point x="269" y="648"/>
      <point x="224" y="654"/>
      <point x="157" y="654" type="curve" smooth="yes"/>
      <point x="147" y="654"/>
      <point x="138" y="649"/>
      <point x="138" y="639" type="curve" smooth="yes"/>
      <point x="138" y="626"/>
      <point x="147" y="619"/>
      <point x="160" y="618" type="curve" smooth="yes"/>
      <point x="195" y="615"/>
      <point x="223" y="596"/>
      <point x="236" y="554" type="curve" smooth="yes"/>
      <point x="289" y="382" type="line" smooth="yes"/>
      <point x="299" y="351"/>
      <point x="294" y="337"/>
      <point x="275" y="315" type="curve" smooth="yes"/>
      <point x="117" y="129" type="line" smooth="yes"/>
      <point x="54" y="55"/>
      <point x="22" y="39"/>
      <point x="-6" y="30" type="curve" smooth="yes"/>
      <point x="-18" y="26"/>
      <point x="-35" y="23"/>
      <point x="-35" y="10" type="curve" smooth="yes"/>
      <point x="-35" y="-3"/>
      <point x="-17" y="-7"/>
      <point x="-2" y="-7" type="curve" smooth="yes"/>
      <point x="40" y="-7"/>
      <point x="68" y="0"/>
      <point x="107" y="0" type="curve" smooth="yes"/>
      <point x="147" y="0"/>
      <point x="163" y="-4"/>
      <point x="207" y="-4" type="curve" smooth="yes"/>
      <point x="221" y="-4"/>
      <point x="236" y="1"/>
      <point x="236" y="10" type="curve" smooth="yes"/>
      <point x="236" y="22"/>
      <point x="219" y="29"/>
      <point x="206" y="32" type="curve" smooth="yes"/>
      <point x="162" y="42"/>
      <point x="134" y="63"/>
      <point x="190" y="140" type="curve" smooth="yes"/>
      <point x="296" y="286" type="line" smooth="yes"/>
      <point x="306" y="299"/>
      <point x="320" y="300"/>
      <point x="325" y="283" type="curve" smooth="yes"/>
      <point x="379" y="94" type="line" smooth="yes"/>
      <point x="389" y="59"/>
      <point x="370" y="46"/>
      <point x="327" y="35" type="curve" smooth="yes"/>
      <point x="315" y="32"/>
      <point x="299" y="25"/>
      <point x="299" y="13" type="curve" smooth="yes"/>
      <point x="299" y="4"/>
      <point x="315" y="-2"/>
      <point x="326" y="-2" type="curve" smooth="yes"/>
      <point x="368" y="-2"/>
      <point x="412" y="1"/>
      <point x="516" y="2" type="curve" smooth="yes"/>
      <point x="535" y="2"/>
      <point x="543" y="-10"/>
      <point x="543" y="-27" type="curve" smooth="yes"/>
      <point x="543" y="-47"/>
      <point x="539" y="-73"/>
      <point x="535" y="-100" type="curve" smooth="yes"/>
      <point x="530" y="-131"/>
      <point x="525" y="-163"/>
      <point x="524" y="-187" type="curve" smooth="yes"/>
      <point x="523" y="-207"/>
      <point x="531" y="-218"/>
      <point x="544" y="-218" type="curve" smooth="yes"/>
    </contour>
  </outline>
</glyph>
<glyph name="Chedescender-cy" format="1">
  <advance width="755"/>
  <unicode hex="04B6"/>
  <outline>
    <contour>
      <point x="568" y="-218"/>
      <point x="580" y="-208"/>
      <point x="590" y="-186" type="curve" smooth="yes"/>
      <point x="611" y="-139"/>
      <point x="638" y="-73"/>
      <point x="663" y="-27" type="curve" smooth="yes"/>
      <point x="680" y="5"/>
      <point x="685" y="35"/>
      <point x="649" y="39" type="curve" smooth="yes"/>
      <point x="608" y="44"/>
      <point x="593" y="58"/>
      <point x="609" y="108" type="curve" smooth="yes"/>
      <point x="745" y="550" type="line" smooth="yes"/>
      <point x="757" y="590"/>
      <point x="771" y="602"/>
      <point x="831" y="618" type="curve"/>
      <point x="845" y="622"/>
      <point x="853" y="626"/>
      <point x="857" y="639" type="curve" smooth="yes"/>
      <point x="860" y="649"/>
      <point x="856" y="654"/>
      <point x="846" y="654" type="curve" smooth="yes"/>
      <point x="804" y="654"/>
      <point x="728" y="650"/>
      <point x="689" y="650" type="curve" smooth="yes"/>
      <point x="649" y="650"/>
      <point x="585" y="655"/>
      <point x="541" y="655" type="curve" smooth="yes"/>
      <point x="533" y="655"/>
      <point x="521" y="649"/>
      <point x="518" y="640" type="curve" smooth="yes"/>
      <point x="514" y="628"/>
      <point x="519" y="621"/>
      <point x="530" y="618" type="curve" smooth="yes"/>
      <point x="580" y="606"/>
      <point x="589" y="594"/>
      <point x="576" y="551" type="curve" smooth="yes"/>
      <point x="527" y="395" type="line" smooth="yes"/>
      <point x="525" y="386"/>
      <point x="521" y="379"/>
      <point x="515" y="375" type="curve" smooth="yes"/>
      <point x="499" y="363"/>
      <point x="458" y="339"/>
      <point x="416" y="339" type="curve" smooth="yes"/>
      <point x="351" y="339"/>
      <point x="322" y="378"/>
      <point x="337" y="426" type="curve" smooth="yes"/>
      <point x="375" y="550" type="line" smooth="yes"/>
      <point x="388" y="590"/>
      <point x="401" y="602"/>
      <point x="461" y="618" type="curve"/>
      <point x="475" y="622"/>
      <point x="483" y="626"/>
      <point x="487" y="639" type="curve" smooth="yes"/>
      <point x="490" y="649"/>
      <point x="486" y="654"/>
      <point x="476" y="654" type="curve" smooth="yes"/>
      <point x="434" y="654"/>
      <point x="358" y="650"/>
      <point x="319" y="650" type="curve" smooth="yes"/>
      <point x="279" y="650"/>
      <point x="215" y="655"/>
      <point x="171" y="655" type="curve" smooth="yes"/>
      <point x="163" y="655"/>
      <point x="151" y="649"/>
      <point x="148" y="640" type="curve" smooth="yes"/>
      <point x="144" y="628"/>
      <point x="149" y="621"/>
      <point x="160" y="618" type="curve" smooth="yes"/>
      <point x="210" y="606"/>
      <point x="220" y="594"/>
      <point x="206" y="551" type="curve" smooth="yes"/>
      <point x="179" y="465" type="line" smooth="yes"/>
      <point x="143" y="350"/>
      <point x="201" y="267"/>
      <point x="319" y="267" type="curve" smooth="yes"/>
      <point x="414" y="267"/>
      <point x="483" y="303"/>
      <point x="500" y="320" type="curve" smooth="yes"/>
      <point x="504" y="324"/>
      <point x="506" y="320"/>
      <point x="500" y="302" type="curve" smooth="yes"/>
      <point x="435" y="97" type="line" smooth="yes"/>
      <point x="422" y="56"/>
      <point x="404" y="45"/>
      <point x="350" y="34" type="curve" smooth="yes"/>
      <point x="337" y="31"/>
      <point x="328" y="24"/>
      <point x="324" y="12" type="curve" smooth="yes"/>
      <point x="321" y="3"/>
      <point x="329" y="-3"/>
      <point x="337" y="-3" type="curve" smooth="yes"/>
      <point x="381" y="-3"/>
      <point x="449" y="2"/>
      <point x="525" y="3" type="curve" smooth="yes"/>
      <point x="547" y="3"/>
      <point x="555" y="-10"/>
      <point x="555" y="-27" type="curve" smooth="yes"/>
      <point x="555" y="-47"/>
      <point x="551" y="-73"/>
      <point x="547" y="-100" type="curve" smooth="yes"/>
      <point x="542" y="-131"/>
      <point x="537" y="-163"/>
      <point x="536" y="-187" type="curve" smooth="yes"/>
      <point x="535" y="-207"/>
      <point x="543" y="-218"/>
      <point x="556" y="-218" type="curve" smooth="yes"/>
    </contour>
  </outline>
</glyph>
<glyph name="cheabkhasian-cy" format="1">
  <advance width="520"/>
  <unicode hex="04BD"/>
  <outline>
    <contour>
      <point x="197" y="242" type="line"/>
      <point x="119" y="242"/>
      <point x="98" y="279"/>
      <point x="98" y="302" type="curve" smooth="yes"/>
      <point x="98" y="324"/>
      <point x="105" y="332"/>
      <point x="137" y="359" type="curve" smooth="yes"/>
      <point x="150" y="370"/>
      <point x="155" y="386"/>
      <point x="155" y="399" type="curve" smooth="yes"/>
      <point x="155" y="417"/>
      <point x="144" y="431"/>
      <point x="118" y="431" type="curve" smooth="yes"/>
      <point x="75" y="431"/>
      <point x="52" y="389"/>
      <point x="52" y="342" type="curve" smooth="yes"/>
      <point x="52" y="257"/>
      <point x="107" y="209"/>
      <point x="200" y="209" type="curve"/>
    </contour>
    <component base="e" xOffset="131"/>
    <contour>
      <point x="410" y="440" type="move" name="top"/>
    </contour>
  </outline>
</glyph>
<glyph name="chedescenderabkhasian-cy" format="1">
  <advance width="520"/>
  <unicode hex="04BF"/>
  <outline>
    <contour>
      <point x="237" y="-139" type="line"/>
      <point x="287" y="17" type="line"/>
      <point x="232" y="17" type="line"/>
      <point x="182" y="-139" type="line"/>
    </contour>
    <component base="cheabkhasian-cy"/>
    <component base="dieresis" xOffset="99"/>
  </outline>
</glyph>
<glyph name="uni04D9" format="1">
  <advance width="389"/>
  <unicode hex="04D9"/>
  <note>
    uni04D9
  </note>
  <outline>
    <component base="uni0259"/>
    <contour>
      <point x="261" y="440" type="move" name="top"/>
    </contour>
  </outline>
</glyph>
<glyph name="uni04E8" format="1">
  <advance width="692"/>
  <unicode hex="04E8"/>
  <note>
    uni04E8
  </note>
  <outline>
    <contour>
      <point x="644" y="306" type="line"/>
      <point x="644" y="364" type="line"/>
      <point x="125" y="364" type="line"/>
      <point x="125" y="306" type="line"/>
    </contour>
    <component base="O"/>
  </outline>
</glyph>
<glyph name="gestrokehook-cy" format="1">
  <advance width="423"/>
  <unicode hex="04FB"/>
  <outline>
    <contour>
      <point x="63" y="-290"/>
      <point x="241" y="-187"/>
      <point x="286" y="-48" type="curve" smooth="yes"/>
      <point x="334" y="100" type="line"/>
      <point x="177" y="51" type="line"/>
      <point x="125" y="-108" type="line" smooth="yes"/>
      <point x="101" y="-182"/>
      <point x="74" y="-234"/>
      <point x="41" y="-234" type="curve" smooth="yes"/>
      <point x="22" y="-234"/>
      <point x="11" y="-222"/>
      <point x="-1" y="-207" type="curve" smooth="yes"/>
      <point x="-14" y="-191"/>
      <point x="-28" y="-171"/>
      <point x="-51" y="-171" type="curve" smooth="yes"/>
      <point x="-67" y="-171"/>
      <point x="-103" y="-196"/>
      <point x="-106" y="-233" type="curve" smooth="yes"/>
      <point x="-108" y="-262"/>
      <point x="-81" y="-290"/>
      <point x="-8" y="-290" type="curve" smooth="yes"/>
    </contour>
    <component base="ghestroke-cy"/>
  </outline>
</glyph>
<glyph name="hastroke-cy" format="1">
  <advance width="510"/>
  <unicode hex="04FF"/>
  <outline>
    <contour>
      <point x="404" y="184" type="line" smooth="yes"/>
      <point x="426" y="184"/>
      <point x="455" y="209"/>
      <point x="460" y="227" type="curve" smooth="yes"/>
      <point x="463" y="237"/>
      <point x="457" y="246"/>
      <point x="444" y="246" type="curve" smooth="yes"/>
      <point x="103" y="246" type="line" smooth="yes"/>
      <point x="86" y="246"/>
      <point x="62" y="223"/>
      <point x="56" y="205" type="curve" smooth="yes"/>
      <point x="52" y="193"/>
      <point x="57" y="184"/>
      <point x="72" y="184" type="curve" smooth="yes"/>
    </contour>
    <component base="x"/>
  </outline>
</glyph>
<glyph name="shhadescender-cy" format="1">
  <advance width="579"/>
  <unicode hex="0527"/>
  <outline>
    <contour>
      <point x="206" y="-276"/>
      <point x="292" y="-258"/>
      <point x="334" y="-233" type="curve" smooth="yes"/>
      <point x="394" y="-197"/>
      <point x="409" y="-139"/>
      <point x="422" y="-74" type="curve" smooth="yes"/>
      <point x="434" y="-14"/>
      <point x="450" y="50"/>
      <point x="478" y="91" type="curve"/>
      <point x="397" y="39" type="line"/>
      <point x="410" y="19" type="line"/>
      <point x="398" y="12"/>
      <point x="344" y="-28"/>
      <point x="327" y="-50" type="curve" smooth="yes"/>
      <point x="295" y="-91"/>
      <point x="279" y="-124"/>
      <point x="266" y="-168" type="curve" smooth="yes"/>
      <point x="249" y="-227"/>
      <point x="221" y="-242"/>
      <point x="190" y="-253" type="curve"/>
      <point x="184" y="-256"/>
      <point x="179" y="-258"/>
      <point x="179" y="-264" type="curve" smooth="yes"/>
      <point x="179" y="-273"/>
      <point x="188" y="-276"/>
      <point x="196" y="-276" type="curve" smooth="yes"/>
    </contour>
    <component base="h"/>
  </outline>
</glyph>
<glyph name="uni1FCF" format="1">
  <advance width="367"/>
  <unicode hex="1FCF"/>
  <note>
    uni1FCF
  </note>
  <outline>
    <component base="uni0313.grkstacksc" xOffset="199" yOffset="-7"/>
    <component base="uni1FC0" xOffset="56" yOffset="182"/>
    <contour>
      <point x="271" y="440" type="move" name="_topgreek"/>
    </contour>
  </outline>
</glyph>
<glyph name="uni1FDD" format="1">
  <advance width="367"/>
  <unicode hex="1FDD"/>
  <note>
    uni1FDD
  </note>
  <outline>
    <contour>
      <point x="424" y="473"/>
      <point x="433" y="486"/>
      <point x="440" y="514" type="curve" smooth="yes"/>
      <point x="448" y="547"/>
      <point x="468" y="659"/>
      <point x="468" y="684" type="curve" smooth="yes"/>
      <point x="468" y="706"/>
      <point x="449" y="714"/>
      <point x="435" y="714" type="curve" smooth="yes"/>
      <point x="408" y="714"/>
      <point x="366" y="680"/>
      <point x="366" y="656" type="curve" smooth="yes"/>
      <point x="366" y="638"/>
      <point x="383" y="553"/>
      <point x="392" y="509" type="curve" smooth="yes"/>
      <point x="397" y="485"/>
      <point x="404" y="473"/>
      <point x="413" y="473" type="curve" smooth="yes"/>
    </contour>
    <component base="uni1FFE" xOffset="-16" yOffset="1"/>
    <contour>
      <point x="289" y="440" type="move" name="_topgreek"/>
    </contour>
  </outline>
</glyph>
<glyph name="uni1FDF" format="1">
  <advance width="367"/>
  <unicode hex="1FDF"/>
  <note>
    uni1FDF
  </note>
  <outline>
    <component base="uni0314.grkstack" xOffset="193" yOffset="37"/>
    <component base="uni1FC0" xOffset="85" yOffset="218"/>
    <contour>
      <point x="261" y="440" type="move" name="_topgreek"/>
    </contour>
  </outline>
</glyph>
<glyph name="uni1FED" format="1">
  <advance width="367"/>
  <unicode hex="1FED"/>
  <note>
    uni1FED
  </note>
  <outline>
    <component base="dieresis" xOffset="-57"/>
    <component base="grave" xOffset="-115" yOffset="242" xScale="0.966" yScale="0.966" xyScale="-0.259" yxScale="0.259"/>
    <contour>
      <point x="261" y="419" type="move" name="_top"/>
    </contour>
  </outline>
</glyph>
<glyph name="uni1FEE" format="1">
  <advance width="367"/>
  <unicode hex="1FEE"/>
  <note>
    uni1FEE
  </note>
  <outline>
    <component base="dieresis" xOffset="-62"/>
    <component base="acute" xOffset="208" yOffset="130" xScale="0.99" yScale="0.99" xyScale="0.139" yxScale="-0.139"/>
    <contour>
      <point x="215" y="420" type="move" name="_top"/>
    </contour>
  </outline>
</glyph>
<glyph name="uni1FFE" format="1">
  <advance width="245"/>
  <unicode hex="1FFE"/>
  <note>
    uni1FFE
  </note>
  <outline>
    <contour>
      <point x="265" y="476"/>
      <point x="274" y="486"/>
      <point x="274" y="493" type="curve" smooth="yes"/>
      <point x="274" y="501"/>
      <point x="269" y="507"/>
      <point x="255" y="513" type="curve" smooth="yes"/>
      <point x="230" y="524"/>
      <point x="223" y="538"/>
      <point x="223" y="557" type="curve" smooth="yes"/>
      <point x="223" y="591"/>
      <point x="242" y="609"/>
      <point x="293" y="616" type="curve" smooth="yes"/>
      <point x="329" y="621"/>
      <point x="348" y="640"/>
      <point x="348" y="671" type="curve" smooth="yes"/>
      <point x="348" y="693"/>
      <point x="328" y="710"/>
      <point x="290" y="710" type="curve" smooth="yes"/>
      <point x="221" y="710"/>
      <point x="153" y="654"/>
      <point x="153" y="570" type="curve" smooth="yes"/>
      <point x="153" y="513"/>
      <point x="196" y="476"/>
      <point x="244" y="476" type="curve" smooth="yes"/>
    </contour>
    <contour>
      <point x="202" y="440" type="move" name="_topgreek"/>
    </contour>
  </outline>
</glyph>
<glyph name="figuredash" format="1">
  <advance width="687"/>
  <unicode hex="2012"/>
  <note>
    figuredash
  </note>
  <outline>
    <contour>
      <point x="626" y="175" type="line" smooth="yes"/>
      <point x="648" y="175"/>
      <point x="675" y="207"/>
      <point x="681" y="226" type="curve" smooth="yes"/>
      <point x="684" y="237"/>
      <point x="676" y="245"/>
      <point x="660" y="245" type="curve" smooth="yes"/>
      <point x="54" y="245" type="line" smooth="yes"/>
      <point x="30" y="245"/>
      <point x="8" y="205"/>
      <point x="4" y="191" type="curve" smooth="yes"/>
      <point x="2" y="184"/>
      <point x="8" y="175"/>
      <point x="19" y="175" type="curve" smooth="yes"/>
    </contour>
  </outline>
</glyph>
<glyph name="bullet" format="1">
  <advance width="380"/>
  <unicode hex="2022"/>
  <note>
    bullet
  </note>
  <outline>
    <contour>
      <point x="302" y="200"/>
      <point x="389" y="282"/>
      <point x="389" y="376" type="curve" smooth="yes"/>
      <point x="389" y="438"/>
      <point x="344" y="508"/>
      <point x="261" y="508" type="curve" smooth="yes"/>
      <point x="163" y="508"/>
      <point x="77" y="419"/>
      <point x="77" y="321" type="curve" smooth="yes"/>
      <point x="77" y="257"/>
      <point x="131" y="200"/>
      <point x="198" y="200" type="curve" smooth="yes"/>
    </contour>
  </outline>
</glyph>
<glyph name="won" format="1">
  <advance width="1121"/>
  <unicode hex="20A9"/>
  <outline>
    <contour>
      <point x="1020" y="309" type="line"/>
      <point x="1041" y="310"/>
      <point x="1063" y="333"/>
      <point x="1064" y="343" type="curve"/>
      <point x="1064" y="350"/>
      <point x="1056" y="361"/>
      <point x="1046" y="361" type="curve"/>
      <point x="99" y="359" type="line"/>
      <point x="81" y="358"/>
      <point x="66" y="336"/>
      <point x="65" y="324" type="curve"/>
      <point x="65" y="315"/>
      <point x="75" y="306"/>
      <point x="85" y="306" type="curve" smooth="yes"/>
    </contour>
    <component base="W"/>
  </outline>
</glyph>
<glyph name="kip" format="1">
  <advance width="808"/>
  <unicode hex="20AD"/>
  <outline>
    <contour>
      <point x="752" y="329" type="line"/>
      <point x="773" y="330"/>
      <point x="795" y="353"/>
      <point x="796" y="363" type="curve"/>
      <point x="796" y="370"/>
      <point x="788" y="381"/>
      <point x="778" y="381" type="curve"/>
      <point x="91" y="379" type="line"/>
      <point x="73" y="378"/>
      <point x="58" y="356"/>
      <point x="57" y="344" type="curve"/>
      <point x="57" y="335"/>
      <point x="67" y="326"/>
      <point x="77" y="326" type="curve" smooth="yes"/>
    </contour>
    <component base="K" xOffset="32"/>
  </outline>
</glyph>
<glyph name="uni20B2" format="1">
  <advance width="734"/>
  <unicode hex="20B2"/>
  <note>
    uni20B2
  </note>
  <outline>
    <contour>
      <point x="375" y="-106"/>
      <point x="426" y="-101"/>
      <point x="426" y="-74" type="curve" smooth="yes"/>
      <point x="426" y="702" type="line" smooth="yes"/>
      <point x="426" y="711"/>
      <point x="417" y="719"/>
      <point x="408" y="719" type="curve" smooth="yes"/>
      <point x="400" y="719"/>
      <point x="348" y="707"/>
      <point x="348" y="679" type="curve" smooth="yes"/>
      <point x="348" y="-87" type="line" smooth="yes"/>
      <point x="348" y="-97"/>
      <point x="356" y="-106"/>
      <point x="363" y="-106" type="curve" smooth="yes"/>
    </contour>
    <component base="G"/>
  </outline>
</glyph>
<glyph name="cedi" format="1">
  <advance width="673"/>
  <unicode hex="20B5"/>
  <outline>
    <contour>
      <point x="248" y="-92"/>
      <point x="262" y="-88"/>
      <point x="266" y="-80" type="curve"/>
      <point x="590" y="694" type="line"/>
      <point x="597" y="710"/>
      <point x="596" y="722"/>
      <point x="583" y="722" type="curve" smooth="yes"/>
      <point x="563" y="722"/>
      <point x="545" y="715"/>
      <point x="540" y="703" type="curve"/>
      <point x="219" y="-64" type="line"/>
      <point x="213" y="-78"/>
      <point x="215" y="-92"/>
      <point x="233" y="-92" type="curve" smooth="yes"/>
    </contour>
    <component base="C"/>
  </outline>
</glyph>
<glyph name="uni2C63" format="1">
  <advance width="640"/>
  <unicode hex="2C63"/>
  <note>
    uni2C63
  </note>
  <outline>
    <contour>
      <point x="421" y="420" type="line" smooth="yes"/>
      <point x="444" y="420"/>
      <point x="462" y="441"/>
      <point x="469" y="458" type="curve"/>
      <point x="470" y="460"/>
      <point x="471" y="461"/>
      <point x="471" y="463" type="curve" smooth="yes"/>
      <point x="471" y="473"/>
      <point x="464" y="482"/>
      <point x="451" y="482" type="curve" smooth="yes"/>
      <point x="131" y="482" type="line" smooth="yes"/>
      <point x="114" y="482"/>
      <point x="100" y="469"/>
      <point x="97" y="451" type="curve" smooth="yes"/>
      <point x="95" y="437"/>
      <point x="99" y="420"/>
      <point x="116" y="420" type="curve" smooth="yes"/>
    </contour>
    <component base="P" xOffset="3"/>
  </outline>
</glyph>
<glyph name="uni2C66" format="1">
  <advance width="380"/>
  <unicode hex="2C66"/>
  <note>
    uni2C66
  </note>
  <outline>
    <contour>
      <point x="-48" y="-23"/>
      <point x="-25" y="-24"/>
      <point x="-10" y="-7" type="curve" smooth="yes"/>
      <point x="496" y="553" type="line"/>
      <point x="496" y="553"/>
      <point x="506" y="564"/>
      <point x="506" y="565" type="curve" smooth="yes"/>
      <point x="506" y="574"/>
      <point x="502" y="584"/>
      <point x="492" y="587" type="curve" smooth="yes"/>
      <point x="467" y="594"/>
      <point x="443" y="597"/>
      <point x="428" y="580" type="curve" smooth="yes"/>
      <point x="-76" y="22" type="line"/>
      <point x="-84" y="16"/>
      <point x="-89" y="8"/>
      <point x="-89" y="8" type="curve"/>
      <point x="-91" y="-1"/>
      <point x="-88" y="-12"/>
      <point x="-73" y="-16" type="curve" smooth="yes"/>
    </contour>
    <component base="t"/>
  </outline>
</glyph>
<glyph name="uni2E24" format="1">
  <advance width="377"/>
  <unicode hex="2E24"/>
  <note>
    uni2E24
  </note>
  <outline>
    <contour>
      <point x="327" y="-200" type="line" smooth="yes"/>
      <point x="337" y="-200"/>
      <point x="347" y="-195"/>
      <point x="347" y="-179" type="curve" smooth="yes"/>
      <point x="347" y="-162"/>
      <point x="329" y="-155"/>
      <point x="318" y="-154" type="curve" smooth="yes"/>
      <point x="251" y="-148" type="line" smooth="yes"/>
      <point x="217" y="-145"/>
      <point x="202" y="-114"/>
      <point x="202" y="-87" type="curve" smooth="yes"/>
      <point x="202" y="140" type="line"/>
      <point x="95" y="140" type="line"/>
      <point x="95" y="-145" type="line" smooth="yes"/>
      <point x="95" y="-201"/>
      <point x="102" y="-201"/>
      <point x="137" y="-201" type="curve" smooth="yes"/>
    </contour>
  </outline>
</glyph>
<glyph name="uniA72B" format="1">
  <advance width="446"/>
  <unicode hex="A72B"/>
  <note>
    uniA72B
  </note>
  <outline>
    <contour>
      <point x="278" y="-190"/>
      <point x="364" y="-109"/>
      <point x="364" y="-86" type="curve" smooth="yes"/>
      <point x="364" y="-73"/>
      <point x="359" y="-62"/>
      <point x="351" y="-62" type="curve" smooth="yes"/>
      <point x="341" y="-62"/>
      <point x="332" y="-68"/>
      <point x="328" y="-73" type="curve" smooth="yes"/>
      <point x="304" y="-99"/>
      <point x="274" y="-118"/>
      <point x="238" y="-118" type="curve" smooth="yes"/>
      <point x="194" y="-118"/>
      <point x="170" y="-96"/>
      <point x="170" y="-59" type="curve" smooth="yes"/>
      <point x="170" y="-13"/>
      <point x="191" y="16"/>
      <point x="211" y="32" type="curve" smooth="yes"/>
      <point x="243" y="57"/>
      <point x="254" y="66"/>
      <point x="278" y="81" type="curve" smooth="yes"/>
      <point x="295" y="91"/>
      <point x="323" y="113"/>
      <point x="323" y="124" type="curve" smooth="yes"/>
      <point x="323" y="137"/>
      <point x="305" y="149"/>
      <point x="297" y="149" type="curve" smooth="yes"/>
      <point x="294" y="149"/>
      <point x="266" y="124"/>
      <point x="233" y="124" type="curve" smooth="yes"/>
      <point x="164" y="124"/>
      <point x="157" y="180"/>
      <point x="157" y="212" type="curve" smooth="yes"/>
      <point x="157" y="298"/>
      <point x="199" y="368"/>
      <point x="270" y="368" type="curve" smooth="yes"/>
      <point x="307" y="368"/>
      <point x="332" y="345"/>
      <point x="349" y="327" type="curve" smooth="yes"/>
      <point x="360" y="312"/>
      <point x="369" y="301"/>
      <point x="380" y="301" type="curve" smooth="yes"/>
      <point x="404" y="301"/>
      <point x="426" y="322"/>
      <point x="426" y="349" type="curve" smooth="yes"/>
      <point x="426" y="396"/>
      <point x="379" y="423"/>
      <point x="301" y="423" type="curve"/>
      <point x="273" y="423"/>
      <point x="240" y="414"/>
      <point x="191" y="391" type="curve" smooth="yes"/>
      <point x="118" y="357"/>
      <point x="18" y="297"/>
      <point x="18" y="182" type="curve" smooth="yes"/>
      <point x="18" y="137"/>
      <point x="46" y="76"/>
      <point x="141" y="64" type="curve" smooth="yes"/>
      <point x="147" y="63"/>
      <point x="146" y="58"/>
      <point x="141" y="56" type="curve"/>
      <point x="57" y="14"/>
      <point x="45" y="-52"/>
      <point x="45" y="-85" type="curve" smooth="yes"/>
      <point x="45" y="-148"/>
      <point x="97" y="-190"/>
      <point x="179" y="-190" type="curve" smooth="yes"/>
    </contour>
  </outline>
</glyph>
<glyph name="uniFFFD" format="1">
  <advance width="811"/>
  <unicode hex="FFFD"/>
  <note>
    uniFFFD
  </note>
  <outline>
    <contour>
      <point x="836" y="307" type="line"/>
      <point x="560" y="707" type="line"/>
      <point x="35" y="307" type="line"/>
      <point x="312" y="-94" type="line"/>
    </contour>
    <contour>
      <point x="340" y="23"/>
      <point x="318" y="47"/>
      <point x="318" y="72" type="curve" smooth="yes"/>
      <point x="318" y="112"/>
      <point x="353" y="147"/>
      <point x="391" y="147" type="curve" smooth="yes"/>
      <point x="425" y="147"/>
      <point x="443" y="119"/>
      <point x="443" y="94" type="curve" smooth="yes"/>
      <point x="443" y="57"/>
      <point x="407" y="23"/>
      <point x="366" y="23" type="curve" smooth="yes"/>
    </contour>
    <contour>
      <point x="385" y="181"/>
      <point x="349" y="214"/>
      <point x="349" y="250" type="curve" smooth="yes"/>
      <point x="349" y="307"/>
      <point x="365" y="353"/>
      <point x="481" y="388" type="curve" smooth="yes"/>
      <point x="542" y="405"/>
      <point x="577" y="429"/>
      <point x="577" y="464" type="curve" smooth="yes"/>
      <point x="577" y="492"/>
      <point x="560" y="512"/>
      <point x="517" y="512" type="curve" smooth="yes"/>
      <point x="502" y="512"/>
      <point x="485" y="501"/>
      <point x="471" y="494" type="curve" smooth="yes"/>
      <point x="462" y="490"/>
      <point x="448" y="482"/>
      <point x="437" y="482" type="curve" smooth="yes"/>
      <point x="417" y="482"/>
      <point x="401" y="496"/>
      <point x="402" y="519" type="curve" smooth="yes"/>
      <point x="402" y="557"/>
      <point x="438" y="579"/>
      <point x="482" y="579" type="curve" smooth="yes"/>
      <point x="549" y="579"/>
      <point x="613" y="517"/>
      <point x="613" y="419" type="curve" smooth="yes"/>
      <point x="613" y="376"/>
      <point x="573" y="326"/>
      <point x="523" y="307" type="curve" smooth="yes"/>
      <point x="446" y="276" type="line" smooth="yes"/>
      <point x="416" y="265"/>
      <point x="409" y="255"/>
      <point x="409" y="237" type="curve" smooth="yes"/>
      <point x="409" y="228"/>
      <point x="410" y="220"/>
      <point x="411" y="213" type="curve" smooth="yes"/>
      <point x="413" y="205"/>
      <point x="417" y="197"/>
      <point x="417" y="191" type="curve" smooth="yes"/>
      <point x="417" y="182"/>
      <point x="407" y="181"/>
      <point x="397" y="181" type="curve" smooth="yes"/>
    </contour>
  </outline>
</glyph>
<glyph name="O.ordn" format="1">
  <advance width="582"/>
  <note>
    O.ordn
  </note>
  <outline>
    <contour>
      <point x="487" y="269"/>
      <point x="645" y="376"/>
      <point x="645" y="538" type="curve" smooth="yes"/>
      <point x="645" y="649"/>
      <point x="550" y="708"/>
      <point x="439" y="710" type="curve"/>
      <point x="267" y="710"/>
      <point x="109" y="603"/>
      <point x="109" y="441" type="curve" smooth="yes"/>
      <point x="109" y="330"/>
      <point x="204" y="271"/>
      <point x="315" y="269" type="curve"/>
    </contour>
    <contour>
      <point x="282" y="302"/>
      <point x="254" y="339"/>
      <point x="254" y="403" type="curve" smooth="yes"/>
      <point x="254" y="522"/>
      <point x="308" y="676"/>
      <point x="425" y="676" type="curve" smooth="yes"/>
      <point x="473" y="676"/>
      <point x="500" y="640"/>
      <point x="500" y="576" type="curve" smooth="yes"/>
      <point x="500" y="457"/>
      <point x="447" y="301"/>
      <point x="330" y="301" type="curve" smooth="yes"/>
    </contour>
  </outline>
</glyph>
<glyph name="U.pc" format="1">
  <advance width="549"/>
  <note>
    U.pc
  </note>
  <outline>
    <contour>
      <point x="347" y="-13"/>
      <point x="416" y="69"/>
      <point x="456" y="191" type="curve" smooth="yes"/>
      <point x="502" y="332" type="line" smooth="yes"/>
      <point x="515" y="369"/>
      <point x="526" y="382"/>
      <point x="567" y="395" type="curve" smooth="yes"/>
      <point x="576" y="398"/>
      <point x="583" y="403"/>
      <point x="585" y="410" type="curve" smooth="yes"/>
      <point x="588" y="420"/>
      <point x="582" y="422"/>
      <point x="574" y="422" type="curve" smooth="yes"/>
      <point x="538" y="422"/>
      <point x="533" y="419"/>
      <point x="505" y="419" type="curve" smooth="yes"/>
      <point x="476" y="419"/>
      <point x="471" y="422"/>
      <point x="428" y="422" type="curve" smooth="yes"/>
      <point x="414" y="422"/>
      <point x="406" y="417"/>
      <point x="404" y="410" type="curve" smooth="yes"/>
      <point x="401" y="398"/>
      <point x="421" y="396"/>
      <point x="440" y="384" type="curve" smooth="yes"/>
      <point x="456" y="374"/>
      <point x="455" y="337"/>
      <point x="439" y="288" type="curve" smooth="yes"/>
      <point x="401" y="171" type="line" smooth="yes"/>
      <point x="380" y="105"/>
      <point x="338" y="57"/>
      <point x="277" y="57" type="curve" smooth="yes"/>
      <point x="227" y="57"/>
      <point x="197" y="102"/>
      <point x="215" y="165" type="curve" smooth="yes"/>
      <point x="265" y="331" type="line" smooth="yes"/>
      <point x="275" y="362"/>
      <point x="285" y="375"/>
      <point x="304" y="384" type="curve" smooth="yes"/>
      <point x="319" y="391"/>
      <point x="347" y="396"/>
      <point x="351" y="410" type="curve" smooth="yes"/>
      <point x="353" y="417"/>
      <point x="349" y="421"/>
      <point x="338" y="421" type="curve" smooth="yes"/>
      <point x="301" y="421"/>
      <point x="241" y="418"/>
      <point x="212" y="418" type="curve" smooth="yes"/>
      <point x="184" y="418"/>
      <point x="140" y="422"/>
      <point x="105" y="422" type="curve" smooth="yes"/>
      <point x="97" y="422"/>
      <point x="88" y="416"/>
      <point x="86" y="410" type="curve" smooth="yes"/>
      <point x="83" y="403"/>
      <point x="87" y="399"/>
      <point x="97" y="396" type="curve" smooth="yes"/>
      <point x="124" y="389"/>
      <point x="122" y="353"/>
      <point x="117" y="339" type="curve" smooth="yes"/>
      <point x="72" y="190" type="line" smooth="yes"/>
      <point x="38" y="74"/>
      <point x="93" y="-13"/>
      <point x="224" y="-13" type="curve" smooth="yes"/>
    </contour>
  </outline>
</glyph>
<glyph name=".notdef" format="1">
  <advance width="516"/>
  <note>
    .notdef
  </note>
  <outline>
    <contour>
      <point x="511" y="1" type="line"/>
      <point x="511" y="552" type="line"/>
      <point x="45" y="552" type="line"/>
      <point x="45" y="1" type="line"/>
    </contour>
    <contour>
      <point x="149" y="436" type="line"/>
      <point x="407" y="436" type="line"/>
      <point x="407" y="117" type="line"/>
      <point x="149" y="117" type="line"/>
    </contour>
  </outline>
</glyph>
<glyph name="backslash.sc" format="1">
  <advance width="320"/>
  <note>
    backslash.sc
  </note>
  <outline>
    <contour>
      <point x="210" y="-67"/>
      <point x="224" y="-62"/>
      <point x="222" y="-51" type="curve" smooth="yes"/>
      <point x="153" y="434" type="line" smooth="yes"/>
      <point x="150" y="456"/>
      <point x="136" y="464"/>
      <point x="115" y="471" type="curve" smooth="yes"/>
      <point x="98" y="477"/>
      <point x="86" y="466"/>
      <point x="87" y="456" type="curve" smooth="yes"/>
      <point x="157" y="-29" type="line" smooth="yes"/>
      <point x="160" y="-49"/>
      <point x="177" y="-58"/>
      <point x="196" y="-63" type="curve" smooth="yes"/>
    </contour>
  </outline>
</glyph>
<glyph name="guilsinglleft.alt" format="1">
  <advance width="389"/>
  <note>
    guilsinglleft.alt
  </note>
  <outline>
    <contour>
      <point x="326" y="15"/>
      <point x="329" y="20"/>
      <point x="329" y="27" type="curve" smooth="yes"/>
      <point x="329" y="32"/>
      <point x="326" y="38"/>
      <point x="323" y="43" type="curve"/>
      <point x="262" y="146"/>
      <point x="240" y="169"/>
      <point x="204" y="211" type="curve"/>
      <point x="194" y="219"/>
      <point x="196" y="217"/>
      <point x="204" y="227" type="curve" smooth="yes"/>
      <point x="240" y="269"/>
      <point x="262" y="292"/>
      <point x="323" y="395" type="curve"/>
      <point x="326" y="401"/>
      <point x="329" y="406"/>
      <point x="329" y="412" type="curve" smooth="yes"/>
      <point x="329" y="418"/>
      <point x="326" y="423"/>
      <point x="322" y="423" type="curve" smooth="yes"/>
      <point x="307" y="423"/>
      <point x="292" y="407"/>
      <point x="286" y="402" type="curve" smooth="yes"/>
      <point x="203" y="326"/>
      <point x="200" y="310"/>
      <point x="77" y="236" type="curve" smooth="yes"/>
      <point x="70" y="233"/>
      <point x="65" y="227"/>
      <point x="65" y="219" type="curve" smooth="yes"/>
      <point x="65" y="204"/>
      <point x="73" y="190"/>
      <point x="95" y="179" type="curve" smooth="yes"/>
      <point x="195" y="130"/>
      <point x="203" y="112"/>
      <point x="286" y="36" type="curve" smooth="yes"/>
      <point x="292" y="31"/>
      <point x="307" y="15"/>
      <point x="322" y="15" type="curve" smooth="yes"/>
    </contour>
  </outline>
</glyph>
<glyph name="quoteright.01" format="1">
  <advance width="0"/>
  <note>
    quoteright.01
  </note>
  <outline>
    <contour>
      <point x="114" y="444"/>
      <point x="194" y="486"/>
      <point x="194" y="584" type="curve" smooth="yes"/>
      <point x="194" y="633"/>
      <point x="156" y="685"/>
      <point x="86" y="685" type="curve" smooth="yes"/>
      <point x="38" y="685"/>
      <point x="10" y="667"/>
      <point x="10" y="634" type="curve" smooth="yes"/>
      <point x="10" y="596"/>
      <point x="32" y="586"/>
      <point x="56" y="581" type="curve" smooth="yes"/>
      <point x="77" y="577"/>
      <point x="96" y="568"/>
      <point x="96" y="544" type="curve" smooth="yes"/>
      <point x="96" y="524"/>
      <point x="86" y="497"/>
      <point x="23" y="483" type="curve" smooth="yes"/>
      <point x="9" y="480"/>
      <point x="-1" y="471"/>
      <point x="-1" y="460" type="curve" smooth="yes"/>
      <point x="-1" y="452"/>
      <point x="5" y="444"/>
      <point x="26" y="444" type="curve" smooth="yes"/>
    </contour>
  </outline>
</glyph>
<glyph name="uni0306.cap" format="1">
  <advance width="0"/>
  <note>
    uni0306.cap
  </note>
  <outline>
    <contour>
      <point x="285" y="685"/>
      <point x="337" y="778"/>
      <point x="337" y="820" type="curve" smooth="yes"/>
      <point x="337" y="835"/>
      <point x="332" y="840"/>
      <point x="324" y="840" type="curve" smooth="yes"/>
      <point x="312" y="840"/>
      <point x="302" y="833"/>
      <point x="287" y="818" type="curve" smooth="yes"/>
      <point x="249" y="780"/>
      <point x="219" y="772"/>
      <point x="172" y="772" type="curve" smooth="yes"/>
      <point x="125" y="772"/>
      <point x="104" y="784"/>
      <point x="83" y="818" type="curve" smooth="yes"/>
      <point x="75" y="831"/>
      <point x="72" y="840"/>
      <point x="60" y="840" type="curve" smooth="yes"/>
      <point x="43" y="840"/>
      <point x="34" y="822"/>
      <point x="34" y="799" type="curve" smooth="yes"/>
      <point x="34" y="753"/>
      <point x="75" y="685"/>
      <point x="163" y="685" type="curve" smooth="yes"/>
    </contour>
    <contour>
      <point x="144" y="675" type="move" name="_top.cap"/>
    </contour>
  </outline>
</glyph>
<glyph name="uni0306.cyr" format="1">
  <advance width="0"/>
  <note>
    uni0306.cyr
  </note>
  <outline>
    <contour>
      <point x="201" y="461"/>
      <point x="252" y="570"/>
      <point x="252" y="595" type="curve" smooth="yes"/>
      <point x="252" y="605"/>
      <point x="250" y="611"/>
      <point x="242" y="611" type="curve" smooth="yes"/>
      <point x="233" y="611"/>
      <point x="229" y="606"/>
      <point x="219" y="589" type="curve" smooth="yes"/>
      <point x="187" y="534"/>
      <point x="146" y="517"/>
      <point x="117" y="517" type="curve" smooth="yes"/>
      <point x="82" y="517"/>
      <point x="65" y="530"/>
      <point x="65" y="554" type="curve" smooth="yes"/>
      <point x="65" y="573"/>
      <point x="73" y="587"/>
      <point x="73" y="605" type="curve" smooth="yes"/>
      <point x="73" y="617"/>
      <point x="61" y="626"/>
      <point x="39" y="626" type="curve" smooth="yes"/>
      <point x="1" y="626"/>
      <point x="-26" y="594"/>
      <point x="-26" y="553" type="curve" smooth="yes"/>
      <point x="-26" y="513"/>
      <point x="9" y="461"/>
      <point x="97" y="461" type="curve" smooth="yes"/>
    </contour>
    <contour>
      <point x="72" y="440" type="move" name="_top"/>
    </contour>
  </outline>
</glyph>
<glyph name="uni0306.sc" format="1">
  <advance width="0"/>
  <note>
    uni0306.sc
  </note>
  <outline>
    <component base="breve" xOffset="-188" yOffset="-16"/>
    <contour>
      <point x="113" y="575" type="move" name="top"/>
    </contour>
    <contour>
      <point x="63" y="419" type="move" name="_top"/>
    </contour>
  </outline>
</glyph>
<glyph name="uni030B.sc" format="1">
  <advance width="0"/>
  <note>
    uni030B.sc
  </note>
  <outline>
    <component base="acutecomb.sc" xOffset="70"/>
    <component base="acutecomb.sc" xOffset="-69"/>
    <contour>
      <point x="39" y="440" type="move" name="_top"/>
    </contour>
  </outline>
</glyph>
<glyph name="uni0327.cap" format="1">
  <advance width="0"/>
  <note>
    uni0327.cap
  </note>
  <outline>
    <contour>
      <point x="-92" y="-281"/>
      <point x="1" y="-192"/>
      <point x="1" y="-150" type="curve" smooth="yes"/>
      <point x="1" y="-133"/>
      <point x="-12" y="-117"/>
      <point x="-31" y="-100" type="curve" smooth="yes"/>
      <point x="-47" y="-85"/>
      <point x="-64" y="-71"/>
      <point x="-64" y="-57" type="curve" smooth="yes"/>
      <point x="-64" y="-39"/>
      <point x="-50" y="-18"/>
      <point x="0" y="17" type="curve"/>
      <point x="-41" y="17" type="line"/>
      <point x="-99" y="-17"/>
      <point x="-171" y="-80"/>
      <point x="-171" y="-113" type="curve" smooth="yes"/>
      <point x="-171" y="-130"/>
      <point x="-150" y="-154"/>
      <point x="-134" y="-169" type="curve" smooth="yes"/>
      <point x="-118" y="-185"/>
      <point x="-102" y="-194"/>
      <point x="-102" y="-212" type="curve" smooth="yes"/>
      <point x="-102" y="-223"/>
      <point x="-108" y="-231"/>
      <point x="-120" y="-231" type="curve" smooth="yes"/>
      <point x="-137" y="-231"/>
      <point x="-146" y="-219"/>
      <point x="-166" y="-203" type="curve" smooth="yes"/>
      <point x="-184" y="-188"/>
      <point x="-201" y="-176"/>
      <point x="-221" y="-176" type="curve" smooth="yes"/>
      <point x="-241" y="-176"/>
      <point x="-252" y="-190"/>
      <point x="-252" y="-215" type="curve" smooth="yes"/>
      <point x="-252" y="-244"/>
      <point x="-210" y="-281"/>
      <point x="-159" y="-281" type="curve" smooth="yes"/>
    </contour>
  </outline>
</glyph>
<glyph name="uni032E.cap" format="1">
  <advance width="0"/>
  <note>
    uni032E.cap
  </note>
  <outline>
    <component base="uni0306.cap" xOffset="-278" yOffset="-900"/>
    <contour>
      <point x="-72" y="-30" type="move" name="_bottom.cap"/>
    </contour>
  </outline>
</glyph>
<glyph name="uni032F.cap" format="1">
  <advance width="0"/>
  <note>
    uni032F.cap
  </note>
  <outline>
    <component base="uni0306.cap" xOffset="58" yOffset="612" xScale="-1" yScale="-1"/>
    <contour>
      <point x="-71" y="-30" type="move" name="_bottom.cap"/>
    </contour>
  </outline>
</glyph>
<glyph name="uni0442.SRB" format="1">
  <advance width="831"/>
  <note>
    uni0442.SRB
  </note>
  <outline>
    <contour>
      <point x="668" y="510" type="line" smooth="yes"/>
      <point x="693" y="510"/>
      <point x="727" y="558"/>
      <point x="727" y="582" type="curve" smooth="yes"/>
      <point x="727" y="592"/>
      <point x="721" y="596"/>
      <point x="703" y="596" type="curve" smooth="yes"/>
      <point x="383" y="596" type="line" smooth="yes"/>
      <point x="364" y="596"/>
      <point x="328" y="563"/>
      <point x="328" y="529" type="curve" smooth="yes"/>
      <point x="328" y="517"/>
      <point x="331" y="510"/>
      <point x="344" y="510" type="curve" smooth="yes"/>
    </contour>
    <component base="uni0448"/>
  </outline>
</glyph>
